<svg xmlns="http://www.w3.org/2000/svg" width="131" height="69.959" viewBox="0 0 131 69.959">
  <g id="Group_1" data-name="Group 1" transform="translate(-132 -121)">
    <path id="Icon_ionic-ios-arrow-forward" data-name="Icon ionic-ios-arrow-forward" d="M39.188,41.163,12.715,14.71a4.978,4.978,0,0,1,0-7.061,5.041,5.041,0,0,1,7.082,0L49.79,37.622a4.99,4.99,0,0,1,.146,6.894L19.818,74.7a5,5,0,0,1-7.082-7.061Z" transform="translate(120.754 114.804)"/>
    <path id="Icon_ionic-ios-arrow-forward-2" data-name="Icon ionic-ios-arrow-forward" d="M39.188,41.163,12.715,14.71a4.978,4.978,0,0,1,0-7.061,5.041,5.041,0,0,1,7.082,0L49.79,37.622a4.99,4.99,0,0,1,.146,6.894L19.818,74.7a5,5,0,0,1-7.082-7.061Z" transform="translate(165.754 114.804)"/>
    <path id="Icon_ionic-ios-arrow-forward-3" data-name="Icon ionic-ios-arrow-forward" d="M39.188,41.163,12.715,14.71a4.978,4.978,0,0,1,0-7.061,5.041,5.041,0,0,1,7.082,0L49.79,37.622a4.99,4.99,0,0,1,.146,6.894L19.818,74.7a5,5,0,0,1-7.082-7.061Z" transform="translate(211.754 114.804)"/>
  </g>
</svg>
