<svg xmlns="http://www.w3.org/2000/svg" width="359" height="95" viewBox="0 0 359 95">
  <g id="Group_1" data-name="Group 1" transform="translate(-37 -373)">
    <text id="SWIPE_" data-name="SWIPE " transform="translate(37 446)" font-size="80" font-family="Stencil"><tspan x="0" y="0">SWIPE </tspan></text>
    <path id="Icon_ionic-ios-arrow-forward" data-name="Icon ionic-ios-arrow-forward" d="M37.791,39.414l-25.15-25.13a4.729,4.729,0,0,1,0-6.708,4.789,4.789,0,0,1,6.728,0L47.863,36.05A4.741,4.741,0,0,1,48,42.6L19.389,71.272a4.75,4.75,0,0,1-6.728-6.708Z" transform="translate(285.754 380.355)"/>
    <path id="Icon_ionic-ios-arrow-forward-2" data-name="Icon ionic-ios-arrow-forward" d="M37.791,39.414l-25.15-25.13a4.729,4.729,0,0,1,0-6.708,4.789,4.789,0,0,1,6.728,0L47.863,36.05A4.741,4.741,0,0,1,48,42.6L19.389,71.272a4.75,4.75,0,0,1-6.728-6.708Z" transform="translate(316.754 380.355)"/>
    <path id="Icon_ionic-ios-arrow-forward-3" data-name="Icon ionic-ios-arrow-forward" d="M37.791,39.414l-25.15-25.13a4.729,4.729,0,0,1,0-6.708,4.789,4.789,0,0,1,6.728,0L47.863,36.05A4.741,4.741,0,0,1,48,42.6L19.389,71.272a4.75,4.75,0,0,1-6.728-6.708Z" transform="translate(346.754 380.355)"/>
  </g>
</svg>
